<svg width="124" height="41" viewBox="0 0 124 41" fill="none" xmlns="http://www.w3.org/2000/svg">
<path d="M-3.12402e-05 39.7929V38.9537L21.3041 4.62897H0.541369V0.812099H27.8279V1.73248L6.63212 36.0031H27.6384V39.7929H-3.12402e-05ZM42.7033 39.7929L31.4422 0.812099H35.5839L44.7065 32.9983L53.7749 0.83917L57.9437 0.812099L67.0663 32.9983L76.1348 0.812099H80.3035L69.0695 39.7929H65.0631L55.8593 7.82323L46.7097 39.7929H42.7033Z" fill="#FAFAFA"/>
<path d="M82.522 39.7929V35.1639H87.151V39.7929H82.522ZM109.046 40.605C106.32 40.605 103.866 40.1538 101.683 39.2515C99.5169 38.3311 97.7213 37.0318 96.2956 35.3534C94.8879 33.6751 93.9676 31.6809 93.5344 29.3709L97.5949 28.6942C98.2446 31.2207 99.6162 33.2059 101.71 34.6496C103.803 36.0753 106.302 36.7881 109.208 36.7881C111.121 36.7881 112.835 36.4904 114.351 35.8948C115.867 35.2812 117.058 34.415 117.925 33.2961C118.791 32.1772 119.224 30.8508 119.224 29.3168C119.224 28.3062 119.043 27.449 118.682 26.7452C118.322 26.0233 117.843 25.4278 117.248 24.9585C116.652 24.4893 116.003 24.1013 115.299 23.7945C114.595 23.4697 113.909 23.208 113.241 23.0095L103.361 20.0589C102.17 19.716 101.069 19.2829 100.058 18.7595C99.0477 18.2181 98.1634 17.5775 97.4054 16.8375C96.6655 16.0796 96.088 15.1953 95.673 14.1847C95.2579 13.1741 95.0504 12.0191 95.0504 10.7197C95.0504 8.51803 95.6278 6.6141 96.7828 5.00795C97.9378 3.4018 99.5169 2.1656 101.52 1.29936C103.523 0.43312 105.806 0.00902244 108.369 0.0270678C110.968 0.0270678 113.287 0.487258 115.326 1.40764C117.383 2.32802 119.079 3.64542 120.415 5.35986C121.75 7.05624 122.635 9.06845 123.068 11.3965L118.899 12.1544C118.628 10.458 118.006 8.98724 117.031 7.74202C116.057 6.4968 114.811 5.54033 113.296 4.8726C111.798 4.18683 110.146 3.83491 108.342 3.81687C106.591 3.81687 105.03 4.11464 103.659 4.71018C102.305 5.28767 101.231 6.08173 100.437 7.09234C99.6432 8.10295 99.2462 9.25794 99.2462 10.5573C99.2462 11.8747 99.6071 12.9304 100.329 13.7245C101.069 14.5185 101.971 15.1412 103.036 15.5923C104.119 16.0435 105.166 16.4134 106.176 16.7022L113.81 18.949C114.604 19.1656 115.533 19.4814 116.598 19.8964C117.681 20.2935 118.728 20.871 119.738 21.6289C120.767 22.3688 121.615 23.3434 122.283 24.5525C122.95 25.7616 123.284 27.2956 123.284 29.1544C123.284 30.9591 122.923 32.5742 122.202 33.9999C121.498 35.4256 120.496 36.6257 119.197 37.6002C117.915 38.5748 116.409 39.3147 114.676 39.82C112.962 40.3433 111.085 40.605 109.046 40.605Z" fill="#C7EEFF"/>
</svg>
