<svg width="124" height="41" viewBox="0 0 124 41" fill="none" xmlns="http://www.w3.org/2000/svg">
<path d="M4.4863e-05 39.7958V38.9566L21.3057 4.62931H0.541485V0.812158H27.83V1.73261L6.63268 36.0057H27.6405V39.7958H4.4863e-05ZM42.7065 39.7958L31.4446 0.812158H35.5866L44.7098 33.0007L53.779 0.839231L57.948 0.812158L67.0713 33.0007L76.1404 0.812158H80.3095L69.0746 39.7958H65.068L55.8635 7.8238L46.7132 39.7958H42.7065Z" fill="#1D242B"/>
<path d="M82.5281 39.7958V35.1665H87.1574V39.7958H82.5281ZM109.054 40.608C106.328 40.608 103.874 40.1568 101.69 39.2544C99.5243 38.3339 97.7285 37.0345 96.3027 35.356C94.895 33.6775 93.9745 31.6832 93.5414 29.3731L97.6022 28.6963C98.2519 31.223 99.6235 33.2083 101.717 34.6521C103.811 36.0779 106.31 36.7908 109.216 36.7908C111.129 36.7908 112.844 36.493 114.36 35.8974C115.876 35.2838 117.067 34.4175 117.933 33.2985C118.8 32.1796 119.233 30.853 119.233 29.319C119.233 28.3083 119.052 27.451 118.691 26.7471C118.33 26.0252 117.852 25.4296 117.256 24.9604C116.661 24.4911 116.011 24.1031 115.307 23.7963C114.603 23.4714 113.918 23.2097 113.25 23.0112L103.368 20.0603C102.177 19.7174 101.076 19.2843 100.066 18.7609C99.055 18.2194 98.1707 17.5787 97.4126 16.8388C96.6727 16.0808 96.0951 15.1964 95.68 14.1857C95.2649 13.175 95.0574 12.02 95.0574 10.7205C95.0574 8.51865 95.6349 6.61458 96.79 5.00831C97.9451 3.40204 99.5243 2.16576 101.528 1.29945C103.531 0.43315 105.814 0.00902225 108.377 0.0270689C110.976 0.0270689 113.295 0.487293 115.334 1.40774C117.392 2.32819 119.088 3.64569 120.424 5.36025C121.759 7.05676 122.644 9.06911 123.077 11.3973L118.908 12.1553C118.637 10.4588 118.014 8.9879 117.04 7.74259C116.065 6.49727 114.82 5.54073 113.304 4.87295C111.806 4.18713 110.155 3.83519 108.35 3.81715C106.599 3.81715 105.038 4.11494 103.666 4.71052C102.313 5.28806 101.239 6.08217 100.445 7.09286C99.6506 8.10354 99.2535 9.25862 99.2535 10.5581C99.2535 11.8756 99.6145 12.9314 100.336 13.7255C101.076 14.5196 101.979 15.1423 103.044 15.5935C104.126 16.0447 105.173 16.4146 106.184 16.7034L113.818 18.9504C114.612 19.167 115.542 19.4828 116.607 19.8979C117.69 20.295 118.736 20.8725 119.747 21.6305C120.776 22.3705 121.624 23.3451 122.292 24.5543C122.96 25.7635 123.293 27.2976 123.293 29.1565C123.293 30.9613 122.933 32.5766 122.211 34.0024C121.507 35.4282 120.505 36.6284 119.206 37.603C117.924 38.5776 116.417 39.3175 114.685 39.8229C112.97 40.3463 111.093 40.608 109.054 40.608Z" fill="#226089"/>
</svg>
